<svg width="445" height="200" viewBox="0 0 445 200" fill="none" xmlns="http://www.w3.org/2000/svg">
<g clip-path="url(#clip0_1_6)">
<path d="M142.129 0.00102234L115.463 46.1881L88.7972 0.00102234H-0.0043335L115.463 199.999L230.931 0.00102234H142.129Z" fill="#41B883"/>
<path d="M142.129 0.00102234L115.463 46.1881L88.7972 0.00102234H46.1827L115.463 119.997L184.744 0.00102234H142.129Z" fill="#34495E"/>
<path d="M390.526 60.6399L338.114 136.421C337.559 137.224 336.755 137.826 335.825 138.135C334.896 138.444 333.891 138.441 332.963 138.13C332.035 137.819 331.235 137.214 330.685 136.409C330.134 135.603 329.862 134.64 329.911 133.666L332.009 91.8276L298.145 84.6459C297.422 84.4926 296.747 84.1638 296.182 83.6888C295.617 83.214 295.178 82.6075 294.905 81.923C294.632 81.2386 294.532 80.4975 294.616 79.7652C294.699 79.0331 294.962 78.3323 295.382 77.7251L347.795 1.94432C348.35 1.1404 349.154 0.538658 350.084 0.230173C351.013 -0.0783113 352.018 -0.0767164 352.946 0.234959C353.874 0.546489 354.674 1.15099 355.225 1.95679C355.775 2.76244 356.047 3.72532 355.998 4.69936L353.9 46.5385L387.763 53.7197C388.487 53.873 389.162 54.2018 389.727 54.6766C390.293 55.1516 390.731 55.7581 391.003 56.4425C391.278 57.1269 391.376 57.8681 391.294 58.6002C391.211 59.3325 390.947 60.0333 390.526 60.6405V60.6399Z" fill="#FCC72B"/>
<path d="M335.64 200C334.245 200.001 332.865 199.729 331.577 199.195C330.289 198.661 329.119 197.878 328.135 196.892L278.611 147.372C276.63 145.381 275.52 142.685 275.523 139.875C275.527 137.066 276.645 134.371 278.632 132.386C280.618 130.399 283.311 129.281 286.121 129.276C288.93 129.273 291.627 130.383 293.619 132.364L335.64 174.38L427.182 82.842C429.178 80.8785 431.868 79.7832 434.667 79.7947C437.468 79.806 440.149 80.9232 442.127 82.9027C444.107 84.8824 445.225 87.564 445.237 90.3635C445.247 93.1631 444.152 95.8537 442.188 97.8492L343.142 196.892C342.158 197.88 340.988 198.661 339.701 199.195C338.413 199.729 337.033 200.001 335.64 200Z" fill="#729B1B"/>
<path d="M335.597 200C336.991 200.001 338.372 199.729 339.659 199.195C340.947 198.661 342.117 197.878 343.101 196.892L392.625 147.372C394.606 145.381 395.717 142.685 395.713 139.875C395.71 137.066 394.592 134.371 392.605 132.386C390.618 130.399 387.924 129.281 385.115 129.276C382.306 129.273 379.61 130.383 377.617 132.364L335.597 174.38L244.055 82.842C242.059 80.8785 239.368 79.7832 236.569 79.7947C233.769 79.806 231.088 80.9232 229.108 82.9027C227.129 84.8824 226.011 87.564 226 90.3635C225.989 93.1631 227.084 95.8537 229.047 97.8492L328.094 196.892C329.078 197.88 330.248 198.661 331.535 199.195C332.823 199.729 334.203 200.001 335.597 200Z" fill="#729B1B" fill-opacity="0.5"/>
</g>
<defs>
<clipPath id="clip0_1_6">
<rect width="445" height="200" fill="white"/>
</clipPath>
</defs>
</svg>
